<svg xmlns:xlink="http://www.w3.org/1999/xlink" width="4.187ex" height="2.509ex" style="font-size: 15px; vertical-align: -0.671ex;" viewBox="0 -791.3 1802.9 1080.4" role="img" focusable="false" xmlns="http://www.w3.org/2000/svg">
<defs>
<path stroke-width="1" id="E1-MJMAINB-49" d="M397 0Q370 3 218 3Q65 3 38 0H25V62H139V624H25V686H38Q65 683 218 683Q370 683 397 686H410V624H296V62H410V0H397Z"></path>
<path stroke-width="1" id="E1-MJMAINB-64" d="M351 686L442 690Q533 694 534 694H540V389Q540 327 540 253T539 163Q539 97 541 83T555 66Q569 62 596 62H609V31Q609 0 608 0Q588 0 510 -3T412 -6Q411 -6 411 16V38L401 31Q337 -6 265 -6Q159 -6 99 58T38 224Q38 265 51 303T92 375T165 429T272 449Q359 449 417 412V507V555Q417 597 415 607T402 620Q388 624 361 624H348V686H351ZM411 350Q362 399 291 399Q278 399 256 392T218 371Q195 351 189 320T182 238V221Q182 179 183 159T191 115T212 74Q241 46 288 46Q358 46 404 100L411 109V350Z"></path>
<path stroke-width="1" id="E1-MJMATHBI-56" d="M401 686Q415 680 415 668Q415 651 404 629Q398 624 356 624Q318 624 318 623Q318 620 337 508T377 284L397 174L472 285Q548 396 623 507T699 620Q698 621 652 624Q634 624 627 627T619 641Q619 648 622 658Q627 677 631 681T650 686Q654 686 686 685T766 684Q794 684 823 684T858 685Q874 685 878 683T886 671Q886 667 882 651Q877 632 873 628T850 624Q800 624 779 617Q774 617 770 613Q767 610 560 304T350 -5Q346 -9 332 -16H306H291Q270 -16 267 -2Q267 -1 260 37T238 161T210 313L156 624H116H94Q62 624 62 642Q66 678 78 684Q82 686 99 686Q144 684 246 684Q330 684 368 685L401 686Z"></path>
</defs>
<g stroke="currentColor" fill="currentColor" stroke-width="0" transform="matrix(1 0 0 -1 0 0)">
 <use xlink:href="#E1-MJMAINB-49" x="0" y="0"></use>
 <use xlink:href="#E1-MJMAINB-64" x="436" y="0"></use>
 <use transform="scale(0.707)" xlink:href="#E1-MJMATHBI-56" x="1521" y="-213"></use>
</g>
</svg>